<svg width="26" height="26" viewBox="-1 -1 25 11" xmlns="http://www.w3.org/2000/svg">
  <rect x="-100" y="-100" width="200" height="200" fill="#000"/>
  <path fill="#fff" d="M 0 0 V 5 H 1 V 0 L 0 0 M 0 8 H 5 C 6 8 7 7 7 6 V 0 H 6 V 5 C 6 7 6 7 5 7 H 0 V 7 V 8 M 8 0 V 1 H 9 V 0 H 8 M 8 2 V 4 H 14 V 8 H 15 V 3 H 9 V 2 H 8 M 16 0 V 4 H 22 V 9 H 0 V 10 H 23 V 3 H 17 V 0 H 16 Z"/>
  <path fill="#000" d="M 7 9.3 v 0.2 h 0.1 v -0.2 h -0.1 m 0 0.6 h 0.4 c 0.1 0 0.1 0 0.1 -0.1 v -0.5 h -0.1 v 0.4 c 0 0.1 0 0.1 -0.1 0.1 h -0.3 v 0.1 m 0.7 -0.6 h 0.5 v 0.5 c 0 0.1 0 0.1 -0.1 0.1 h -0.4 v -0.1 h 0.3 c 0.1 0 0.1 0 0.1 -0.1 v -0.3 h -0.4 v -0.1 m 0.6 0 v 0.1 h 0.1 v -0.1 h -0.1 m 0 0.2 v 0.2 h 0.4 v 0.2 h 0.1 v -0.3 h -0.4 v -0.1 h -0.1 m 0.6 -0.2 h 0.5 v 0.5 c 0 0.1 0 0.1 -0.1 0.1 h -0.4 v -0.1 h 0.3 c 0.1 0 0.1 0 0.1 -0.1 v -0.3 h -0.4 v -0.1 m 0.6 0 v 0.1 h 0.1 v -0.1 h -0.1 m 0 0.2 v 0.4 h 0.1 v -0.4 h -0.1 m 0.3 -0.2 v 0.4 h 0.1 v -0.4 h -0.1 m 0 0.5 v 0.1 h 0.1 v -0.1 h -0.1 m 0.2 -0.5 v 0.6 h 0.1 v -0.6 h -0.1 m 0.3 0 v 0.6 h 0.1 v -0.6 h -0.1 m 0.2 0 v 0.1 h 0.1 v -0.1 h -0.1 m 0.3 0 v 0.1 h 0.1 v -0.1 h -0.1 m -0.3 0.5 v 0.1 h 0.1 v -0.1 h -0.1 m 0.3 0 v 0.1 h 0.1 v -0.1 h -0.1 m 0.2 -0.5 v 0.2 h 0.1 v -0.2 h -0.1 m 0 0.3 v 0.3 h 0.1 v -0.3 h -0.1 m 0.2 -0.1 v 0.1 h 0.2 v 0.3 h 0.1 v -0.6 h -0.1 v 0.2 h -0.2 m 0.4 -0.2 h 0.5 v 0.1 h -0.5 v -0.1 m 0 0.2 h 0.5 v 0.1 h -0.2 v 0.3 h -0.1 v -0.3 h -0.2 v -0.1 m 0.6 -0.2 h 0.5 v 0.4 h -0.1 v -0.3 h -0.4 v -0.1 m 0.4 0.6 v -0.1 h 0.1 v 0.1 h -0.1 m 0.2 -0.6 v 0.3 h 0.4 v 0.3 h 0.1 v -0.4 h -0.4 v -0.2 h -0.1 m 0.6 0 h 0.5 v 0.5 c 0 0.1 0 0.1 -0.1 0.1 h -0.4 v -0.1 h 0.3 c 0.1 0 0.1 0 0.1 -0.1 v -0.3 h -0.4 v -0.1 m 0.6 0.3 h 0.5 v 0.1 h -0.5 v -0.1 m 0.1 -0.2 v 0.1 h 0.1 v -0.1 h -0.1 m 0.2 0 v 0.1 h 0.1 v -0.1 h -0.1 m 0.3 -0.1 v 0.2 h 0.1 v -0.2 h -0.1 m 0 0.6 h 0.4 c 0.1 0 0.1 0 0.1 -0.1 v -0.5 h -0.1 v 0.4 c 0 0.1 0 0.1 -0.1 0.1 h -0.3 v 0.1 m 0.7 -0.6 h 0.5 v 0.1 h -0.5 v -0.1 m 0 0.2 l 0.5 0.1 v 0.1 l -0.5 -0.1 v -0.1 m 0.6 -0.2 v 0.3 h 0.4 v 0.3 h 0.1 v -0.4 h -0.4 v -0.2 h -0.1"/>
</svg>